<?xml version="1.0" standalone="no"?>
<!DOCTYPE svg PUBLIC "-//W3C//DTD SVG 20010904//EN"
 "http://www.w3.org/TR/2001/REC-SVG-20010904/DTD/svg10.dtd">
<svg version="1.0" xmlns="http://www.w3.org/2000/svg"
 width="1024.000000pt" height="1024.000000pt" viewBox="0 0 1024.000000 1024.000000"
 preserveAspectRatio="xMidYMid meet">
<metadata>
Created by potrace 1.14, written by Peter Selinger 2001-2017
</metadata>
<g transform="translate(0.000000,1024.000000) scale(0.100000,-0.100000)"
fill="#000000" stroke="none">
<path d="M4407 9724 c-1 -1 -69 -5 -152 -8 -155 -7 -190 -10 -215 -19 -91 -31
-124 -46 -177 -79 -78 -50 -172 -151 -209 -226 -15 -31 -28 -59 -29 -62 0 -3
-13 -36 -27 -75 -15 -38 -30 -83 -34 -100 -4 -16 -11 -35 -16 -41 -5 -7 -8
-16 -6 -20 1 -5 -11 -47 -26 -94 -15 -47 -30 -96 -32 -109 -3 -14 -8 -29 -12
-35 -3 -6 -7 -15 -8 -21 -1 -5 -23 -77 -49 -160 -25 -82 -48 -157 -50 -165 -2
-8 -4 -16 -5 -17 -2 -2 -3 -6 -4 -10 -12 -45 -28 -101 -33 -113 -3 -8 -7 -20
-9 -27 -1 -7 -11 -41 -22 -75 -11 -35 -32 -103 -47 -153 -15 -49 -29 -97 -32
-105 -4 -8 -7 -20 -9 -27 -1 -7 -13 -47 -27 -90 -14 -43 -33 -105 -42 -138
-10 -33 -26 -84 -36 -113 -10 -28 -19 -54 -19 -57 0 -3 -2 -10 -5 -17 -2 -7
-22 -76 -45 -153 -23 -77 -55 -180 -71 -229 -16 -49 -26 -93 -23 -97 3 -5 0
-9 -5 -9 -6 0 -11 -9 -11 -20 0 -10 -4 -29 -9 -42 -9 -22 -72 -222 -77 -243
-1 -5 -21 -71 -44 -145 -23 -74 -61 -202 -86 -285 -25 -82 -54 -175 -64 -205
-15 -45 -33 -105 -46 -152 -1 -5 -3 -10 -4 -13 -1 -3 -3 -8 -4 -12 -1 -5 -5
-17 -8 -28 -4 -11 -18 -60 -33 -110 -15 -49 -29 -97 -32 -105 -8 -19 -7 -16
-22 -70 -7 -25 -21 -72 -32 -105 -42 -133 -220 -714 -223 -730 -3 -14 -47
-155 -56 -180 -7 -18 -67 -213 -74 -240 -7 -28 -50 -169 -72 -235 -13 -41 -26
-84 -28 -95 -3 -11 -14 -49 -26 -85 -12 -36 -23 -69 -24 -75 -5 -19 -47 -160
-71 -235 -38 -119 -85 -274 -86 -285 -1 -5 -8 -25 -16 -43 -7 -17 -12 -32 -9
-32 2 0 73 33 157 74 176 84 288 136 295 136 3 0 24 9 47 19 23 10 71 31 107
45 36 15 74 31 85 36 28 12 267 100 285 105 8 2 34 10 58 19 23 8 46 16 50 17
12 3 26 7 62 19 46 15 201 61 220 65 8 2 15 4 15 5 0 1 9 3 19 5 11 2 31 7 45
11 14 4 29 8 34 9 4 2 8 3 10 5 1 1 9 3 17 5 50 11 72 16 130 30 35 9 74 18
85 20 11 2 20 4 20 5 0 1 9 3 20 5 11 2 31 6 45 9 25 6 67 15 105 22 11 2 42
8 69 14 26 5 52 7 57 4 5 -3 9 0 9 6 0 6 4 9 8 6 15 -9 29 9 39 49 6 22 30
103 53 180 23 77 43 145 44 150 2 6 9 30 16 55 15 49 19 63 23 82 1 7 6 19 10
26 5 6 6 12 3 12 -3 0 2 16 10 35 8 19 12 35 9 35 -3 0 -1 9 5 21 6 11 13 28
15 37 3 16 12 47 71 252 14 47 27 93 29 103 2 9 6 21 9 25 3 5 7 19 10 33 2
13 19 69 36 124 17 55 33 107 35 115 20 82 35 132 45 149 6 12 9 21 6 21 -2 0
7 37 21 83 14 45 26 87 28 92 1 6 4 17 7 25 7 20 40 132 43 145 1 5 8 30 15
55 8 25 14 48 16 53 1 4 2 8 4 10 1 1 3 9 5 17 1 8 11 42 21 75 10 33 19 65
20 70 1 6 21 73 44 150 76 257 94 319 119 410 5 17 34 116 65 220 31 105 58
195 60 200 18 65 29 103 32 115 4 21 91 313 110 375 9 28 17 55 18 60 17 78
48 167 69 198 21 30 72 61 87 52 6 -3 10 -2 10 4 0 6 11 6 30 1 32 -9 36 -10
48 -10 28 0 85 -82 97 -139 2 -9 15 -56 30 -106 32 -106 54 -184 60 -205 2 -8
10 -36 19 -61 9 -25 17 -54 19 -65 2 -10 7 -26 10 -34 8 -20 57 -189 63 -216
2 -12 11 -38 19 -58 8 -20 13 -36 11 -36 -3 0 2 -19 10 -42 9 -24 17 -52 19
-62 5 -21 23 -83 32 -106 3 -8 8 -23 10 -33 1 -10 12 -46 22 -80 41 -129 71
-233 75 -252 2 -11 9 -33 15 -48 6 -15 13 -42 16 -59 3 -17 9 -36 13 -42 3 -6
7 -15 7 -21 1 -5 4 -17 7 -25 8 -18 73 -242 94 -320 8 -30 16 -61 19 -68 2 -7
5 -14 5 -17 0 -3 6 -21 15 -41 8 -19 14 -38 13 -42 -2 -6 15 -65 29 -102 3 -8
7 -19 8 -25 2 -5 13 -44 25 -85 12 -41 23 -79 25 -85 1 -5 5 -17 8 -25 6 -14
67 -223 71 -245 2 -5 11 -37 21 -70 10 -33 20 -64 21 -70 1 -5 21 -73 44 -150
23 -77 44 -147 45 -155 2 -8 14 -46 26 -85 12 -38 23 -74 25 -80 1 -5 14 -50
30 -100 15 -49 29 -94 30 -100 4 -21 37 -132 60 -204 13 -41 21 -77 19 -82 -3
-4 -1 -10 5 -14 5 -3 10 -15 10 -25 0 -23 28 -31 180 -56 14 -2 36 -7 50 -11
14 -3 32 -7 40 -8 22 -3 236 -54 252 -60 7 -2 24 -7 38 -9 14 -3 59 -15 100
-26 41 -12 89 -25 105 -30 79 -22 272 -82 290 -90 11 -5 40 -16 65 -24 25 -8
63 -21 85 -29 22 -9 78 -29 125 -47 47 -17 94 -35 105 -40 11 -5 49 -21 85
-36 36 -14 81 -33 100 -41 19 -8 44 -19 55 -24 11 -4 105 -49 209 -98 104 -50
190 -91 191 -91 2 0 -14 55 -35 123 -63 204 -74 242 -76 250 -1 4 -2 8 -4 10
-1 1 -3 9 -5 17 -4 17 -27 93 -80 265 -21 66 -38 125 -39 130 -1 6 -4 15 -8
20 -3 6 -9 26 -14 45 -11 50 -11 50 -14 53 -1 1 -3 9 -5 17 -2 8 -25 83 -50
165 -26 83 -48 155 -50 160 -1 6 -4 17 -7 25 -6 17 -12 36 -58 190 -17 58 -35
116 -40 130 -4 14 -22 70 -38 125 -67 220 -114 374 -137 450 -14 44 -28 95
-31 113 -4 17 -9 32 -13 32 -4 0 -7 10 -8 22 -1 12 -6 33 -12 47 -5 14 -24 73
-41 131 -17 58 -37 123 -45 145 -8 22 -17 55 -20 74 -3 18 -12 46 -21 62 -8
16 -14 30 -13 31 2 5 -12 63 -20 83 -8 20 -51 160 -56 179 -1 6 -5 18 -8 26
-4 8 -8 24 -10 35 -1 11 -5 25 -9 30 -5 9 -36 112 -43 145 -2 8 -14 49 -28 90
-19 62 -46 148 -52 170 -1 3 -10 32 -20 65 -10 33 -20 65 -21 70 -1 6 -9 33
-19 60 -9 28 -18 55 -19 60 -6 26 -30 104 -41 135 -7 19 -13 37 -13 40 -1 3
-3 12 -6 20 -3 8 -16 53 -30 100 -13 47 -36 123 -51 170 -14 47 -27 90 -28 95
-5 18 -39 129 -57 185 -10 30 -21 67 -24 82 -3 15 -11 40 -18 55 -6 15 -12 34
-14 41 -1 7 -12 46 -24 85 -12 40 -23 77 -24 82 -1 6 -4 15 -7 20 -6 10 -22
68 -20 73 1 1 -5 18 -13 37 -8 19 -13 35 -11 35 3 0 -2 17 -9 38 -8 20 -24 71
-36 112 -12 41 -26 84 -30 95 -4 11 -22 70 -40 130 -18 61 -46 152 -62 204
-17 51 -32 101 -33 110 -2 9 -4 16 -5 16 -1 0 -3 7 -5 16 -3 15 -38 119 -55
164 -43 114 -134 245 -200 288 -14 9 -34 22 -45 29 -11 7 -22 16 -25 20 -7 9
-63 32 -72 30 -5 -1 -8 2 -8 8 0 6 -3 9 -7 8 -5 -1 -28 5 -53 12 -44 13 -74
18 -152 23 -21 2 -40 6 -43 9 -4 3 -19 2 -35 -2 -16 -4 -30 -6 -33 -4 -2 2
-51 4 -108 4 -120 0 -121 0 -196 1 -32 0 -67 0 -78 0 -11 -1 -47 -1 -80 0 -33
0 -69 0 -80 0 -11 -1 -47 -1 -80 0 -33 0 -69 0 -80 -1 -11 0 -204 1 -428 2
-225 2 -409 2 -410 2z"/>
<path d="M3534 3143 c-21 -78 -20 -74 -28 -133 -4 -25 -9 -56 -11 -70 -23
-123 -24 -414 -1 -575 46 -319 183 -623 375 -835 l48 -53 2 34 c1 19 3 46 4
61 1 16 5 28 9 28 5 0 8 7 8 16 0 46 102 190 166 232 35 23 123 63 151 68 14
3 31 7 35 10 5 3 44 5 86 5 174 -2 289 -66 356 -199 13 -26 26 -60 30 -77 13
-63 16 -76 21 -97 3 -13 7 -66 9 -120 2 -53 7 -101 10 -107 4 -6 4 -11 -1 -11
-9 0 -8 -73 1 -89 4 -5 2 -12 -4 -16 -6 -4 -8 -11 -4 -16 3 -6 7 -34 9 -62 3
-46 6 -68 20 -152 26 -158 152 -389 288 -529 69 -70 194 -168 247 -194 14 -6
32 -16 40 -21 31 -18 70 -34 74 -30 3 2 -6 27 -18 54 -21 46 -37 103 -54 195
-9 46 -9 253 0 310 15 98 59 203 121 286 76 102 204 213 334 290 78 47 218
139 221 146 2 4 8 8 13 8 23 0 211 151 299 240 111 112 117 119 181 219 27 42
53 81 59 88 5 7 10 14 10 17 0 3 15 38 34 78 32 69 82 216 78 229 0 4 3 21 8
38 28 100 31 344 5 471 -3 14 -7 34 -9 45 -2 11 -9 39 -15 63 -13 47 -9 48
-89 -10 -87 -64 -351 -192 -417 -202 -5 -1 -23 -7 -40 -13 -24 -10 -94 -31
-125 -38 -3 0 -23 -5 -45 -10 -22 -4 -44 -10 -50 -11 -5 -2 -23 -6 -40 -9 -16
-3 -41 -8 -55 -10 -73 -15 -117 -22 -186 -30 -21 -3 -52 -7 -69 -9 -210 -30
-656 -25 -905 10 -76 11 -85 12 -90 14 -3 1 -8 2 -12 1 -11 -1 -228 47 -288
64 -112 31 -195 59 -204 67 -6 4 -16 8 -23 8 -41 0 -309 148 -395 219 -36 29
-92 91 -121 134 -15 22 -29 42 -31 44 -2 2 -11 -27 -22 -64z"/>
</g>
</svg>
